<svg width="48" height="48" viewBox="0 0 48 48" fill="none" xmlns="http://www.w3.org/2000/svg">
<path d="M28 24H31V29.64L35.88 32.46L34.38 35.06L28 31.38V24ZM8 4H36C37.0609 4 38.0783 4.42143 38.8284 5.17157C39.5786 5.92172 40 6.93913 40 8V20.2C42.48 22.72 44 26.18 44 30C44 33.713 42.525 37.274 39.8995 39.8995C37.274 42.525 33.713 44 30 44C26.18 44 22.72 42.48 20.2 40H8C6.93913 40 5.92172 39.5786 5.17157 38.8284C4.42143 38.0783 4 37.0609 4 36V8C4 6.93913 4.42143 5.92172 5.17157 5.17157C5.92172 4.42143 6.93913 4 8 4ZM8 30V36H17.34C16.48 34.18 16 32.14 16 30H8ZM8 16H20V10H8V16ZM36 16V10H24V16H36ZM8 26H16.58C17.26 23.7 18.52 21.64 20.2 20H8V26ZM30 20.3C27.4274 20.3 24.9602 21.322 23.1411 23.1411C21.322 24.9602 20.3 27.4274 20.3 30C20.3 35.36 24.64 39.7 30 39.7C31.2738 39.7 32.5352 39.4491 33.712 38.9616C34.8889 38.4742 35.9582 37.7597 36.8589 36.8589C37.7597 35.9582 38.4742 34.8889 38.9616 33.712C39.4491 32.5352 39.7 31.2738 39.7 30C39.7 24.64 35.36 20.3 30 20.3Z" fill="black"/>
</svg>
