<svg width="48" height="48" viewBox="0 0 48 48" fill="none" xmlns="http://www.w3.org/2000/svg">
<path d="M10 6C8.93913 6 7.92172 6.42143 7.17157 7.17157C6.42143 7.92172 6 8.93913 6 10V38C6 39.0609 6.42143 40.0783 7.17157 40.8284C7.92172 41.5786 8.93913 42 10 42H38C39.0609 42 40.0783 41.5786 40.8284 40.8284C41.5786 40.0783 42 39.0609 42 38V10C42 8.93913 41.5786 7.92172 40.8284 7.17157C40.0783 6.42143 39.0609 6 38 6H10ZM12 18H15L17 24.86L19 18H22L18.5 30H15.5L12 18ZM26 18H33C34.7 18 36 19.3 36 21V23C36 24.2 35.2 25.3 34.2 25.8L36 30H33L31.3 26H29V30H26V18ZM29 21V23H33V21H29Z" fill="black"/>
</svg>
