<svg width="48" height="48" viewBox="0 0 48 48" fill="none" xmlns="http://www.w3.org/2000/svg">
<g clip-path="url(#clip0_5_141)">
<path d="M46 4H2C1.46957 4 0.960859 4.21071 0.585786 4.58579C0.210714 4.96086 0 5.46957 0 6L0 42C0 42.5304 0.210714 43.0391 0.585786 43.4142C0.960859 43.7893 1.46957 44 2 44H46C46.5304 44 47.0391 43.7893 47.4142 43.4142C47.7893 43.0391 48 42.5304 48 42V6C48 5.46957 47.7893 4.96086 47.4142 4.58579C47.0391 4.21071 46.5304 4 46 4ZM44 40H40V38H30V40H4V8H44V40ZM20.58 19.42C20.58 18.513 20.9403 17.6431 21.5817 17.0017C22.2231 16.3603 23.093 16 24 16C25.9 16 27.42 17.54 27.42 19.42C27.42 21.32 25.9 22.86 24 22.86C22.1 22.86 20.58 21.32 20.58 19.42ZM11.42 22.58C11.42 21.16 12.58 20 14 20C14.6843 20 15.3405 20.2718 15.8243 20.7557C16.3082 21.2395 16.58 21.8957 16.58 22.58C16.58 24 15.42 25.14 14 25.14C12.58 25.14 11.42 24 11.42 22.58ZM31.42 22.58C31.42 21.8957 31.6918 21.2395 32.1757 20.7557C32.6595 20.2718 33.3157 20 34 20C34.6843 20 35.3405 20.2718 35.8243 20.7557C36.3082 21.2395 36.58 21.8957 36.58 22.58C36.58 24 35.42 25.14 34 25.14C32.58 25.14 31.42 24 31.42 22.58ZM40 30.28V32H8V30.28C8 28.4 11.1 26.86 14 26.86C15.1 26.86 16.22 27.08 17.2 27.46C18.7 26.08 21.4 25.14 24 25.14C26.6 25.14 29.3 26.08 30.8 27.46C31.78 27.08 32.9 26.86 34 26.86C36.9 26.86 40 28.4 40 30.28Z" fill="black"/>
</g>
<defs>
<clipPath id="clip0_5_141">
<rect width="48" height="48" fill="white"/>
</clipPath>
</defs>
</svg>
